<svg id="Layer_1" enable-background="new 0 0 128 128" viewBox="0 0 128 128" xmlns="http://www.w3.org/2000/svg"><g><path d="m61 15.9h1.3v1.3c0 1 .8 1.8 1.8 1.8s1.8-.8 1.8-1.8v-1.3h1.1c1 0 1.8-.8 1.8-1.8s-.8-1.7-1.8-1.7h-1.3v-1.3c0-1-.8-1.8-1.8-1.8s-1.8.8-1.8 1.8v1.3h-1.1c-1 0-1.8.8-1.8 1.8s.8 1.7 1.8 1.7z"/><path d="m37.9 92.6c-1.9 1.3-3.5 3-4.9 4.8-.6.8-.4 1.9.4 2.4.8.6 1.9.4 2.4-.3 1.2-1.6 2.6-2.9 4.1-4.1.8-.6 1-1.6.4-2.4s-1.6-1-2.4-.4z"/><path d="m78.9 82.4c-.7-.1-1.5-.1-2.2-.1-.4 0-1.3-.3-1.4-1.2 4.2-.3 11.4-1.8 20.8-7 .5-.3.9-.9.9-1.5v-28.9c0-11.3-3.8-20.2-11.1-26l2.8-10.7c.2-1-.3-2.2-1.7-2.2h-46c-1 0-2 .9-1.7 2.2.7 2.7 2.9 10.7 2.9 10.7-7.3 5.7-11.1 14.7-11.1 26v28.8c0 .6.3 1.2.9 1.5 9.3 5.3 16.5 6.7 20.8 7-.1.7-.7 1.2-1.4 1.2-.8 0-2.3.1-2.4.1-15.3 1.2-26.6 13.8-26.5 28.8v10.4c0 1 .8 1.7 1.8 1.8h79.6c1 0 1.7-.8 1.8-1.8v-10.3c-.1-10.2-7.1-27.2-26.8-28.8zm-14.9 12.8-10.8-9.8c1.9-.7 3.1-2.5 3.1-4.6v-3.2c5 1.7 10.5 1.7 15.5 0v3.2c0 2 1.2 3.8 3.1 4.6zm-21.2-50.2c12.8-1.2 22.4-4.7 29.3-10.7l.1.1c3.9 5.1 6.5 8.6 13.2 10.1v9.6c0 11.7-9.5 21.3-21.3 21.3s-21.3-9.5-21.3-21.3zm32.5 32.5v-1.4c8.3-4.2 13.5-12.7 13.5-22v-9c1.4.2 2.9.3 4.7.3v26.1c-8.2 4.4-14.5 5.7-18.2 6zm9.4-69.2-4.2 15.7c-5.3-2-10.8-3.1-16.5-3.1-5.6 0-11.2 1.1-16.5 3.1l-4.2-15.7zm-41.5 13.1 1.5 5.4c.3.9 1.4 1.6 2.4 1.1 5.3-2.3 11.1-3.6 16.9-3.6 5.8.1 11.6 1.3 16.9 3.6 1.2.5 2.2-.4 2.4-1.1l1.5-5.4c5.3 4.8 8.2 11.8 8.6 20.5-8 0-12.9-1-19.8-11.2-.4-.6-1.6-1.1-2.6-.2-7.5 7.5-19.5 11.2-36.4 11.4.4-8.7 3.3-15.7 8.6-20.5zm-8.6 24c1.6 0 3.2-.1 4.7-.1v8.9c0 9.3 5.2 17.8 13.5 22v1.4c-3.8-.3-10-1.6-18.2-6.1zm-8.7 65.8c0-12.9 9.7-23.8 22.6-25.2l12.9 11.7-4.2 3.9c-.4.3-.6.8-.6 1.3v17h-30.7zm76.2 8.6h-42v-16.2l19.4-17.6h.1.1c1.6.2 3.1.5 4.6 1h.1c10.6 3.3 17.8 13.1 17.8 24.2z"/><path d="m86.6 103h-9c-1 0-1.8.8-1.8 1.8s.8 1.8 1.8 1.8h9c1 0 1.8-.8 1.8-1.8s-.9-1.8-1.8-1.8z"/></g></svg>