<?xml version="1.0" encoding="utf-8"?>
<!-- Generator: Adobe Illustrator 24.0.1, SVG Export Plug-In . SVG Version: 6.00 Build 0)  -->
<svg version="1.1" id="Layer_1" xmlns="http://www.w3.org/2000/svg" xmlns:xlink="http://www.w3.org/1999/xlink" x="0px" y="0px"
	 viewBox="0 0 595 612" style="enable-background:new 0 0 595 612;" xml:space="preserve">
<path d="M516.2,530.6c-11.7,34.7-32.5,59.7-60.2,72.4c-13,6-27.1,9-41.7,9c-15.6,0-31.9-3.4-48.4-10.1
	c-82.6-33.7-154.9-80.8-214.9-140c-0.2-0.1-0.3-0.3-0.4-0.4C91.3,401.4,44.2,329,10.5,246.3C-2.6,214.1-3,183,9.3,156.1
	C22,128.4,47,107.6,81.7,95.9c15.4-5.2,30.5-5.1,44.8,0.3C158.7,108,226,199.8,227.9,234.4c1.7,33.2-22.9,50-34.7,58
	c-9.9,6.8-23.4,4.2-30.1-5.7c-6.8-9.9-4.2-23.4,5.7-30.1c13.9-9.5,16.1-13.8,15.8-19.9c-2.2-18.6-56.3-92.5-73.3-99.9
	c-4.9-1.8-9.8-1.8-15.8,0.2c-23,7.8-39.2,20.6-46.8,37.2c-7.2,15.7-6.6,35,1.9,55.8c31.5,77.3,75.4,144.9,130.6,200.8
	c0,0,0,0,0.1,0.1c56,55.3,123.6,99.4,201,130.9c20.7,8.4,40,9.1,55.7,1.9c16.5-7.6,29.4-23.8,37.1-46.8c2-5.9,2.1-10.8,0.2-15.8
	c-7.4-16.9-81.3-71.1-100.1-73.3c-5.9-0.3-10.2,1.9-19.7,15.9c-6.8,9.9-20.3,12.4-30.1,5.7c-9.9-6.8-12.4-20.3-5.7-30.1
	c8.1-11.8,24.9-36.4,58-34.7c34.7,1.9,126.4,69.3,138.3,101.6C521.3,500.2,521.4,515.2,516.2,530.6z M447.4,295.4
	c-12,0-21.7-9.7-21.7-21.7c0-57.5-46.8-104.3-104.3-104.3c-12,0-21.7-9.7-21.7-21.7c0-12,9.7-21.7,21.7-21.7c0,0,0,0,0,0
	c81.4,0,147.6,66.3,147.6,147.7C469,285.7,459.3,295.4,447.4,295.4z M573.3,295.4c-12,0-21.7-9.7-21.7-21.7
	c0-61.5-23.9-119.4-67.4-162.9c-43.5-43.5-101.3-67.5-162.8-67.5c-12,0-21.7-9.7-21.7-21.7c0-12,9.7-21.7,21.7-21.7
	c73.1,0,141.8,28.5,193.5,80.2c51.7,51.7,80.1,120.4,80.1,193.6C595,285.7,585.3,295.4,573.3,295.4z"/>
</svg>
