<?xml version="1.0" encoding="utf-8"?>
<!-- Generator: Adobe Illustrator 25.2.2, SVG Export Plug-In . SVG Version: 6.00 Build 0)  -->
<svg version="1.1" id="Layer_1" xmlns="http://www.w3.org/2000/svg" xmlns:xlink="http://www.w3.org/1999/xlink" x="0px" y="0px"
	 viewBox="0 0 352.9 323" style="enable-background:new 0 0 352.9 323;" xml:space="preserve">
<g>
	<path d="M239.3,203.2c0-43.9,0-87.5,0-131.5c-8.9,0-17.5-0.1-26.1,0c-5,0.1-10,0-14.9,0.8c-9.4,1.6-16.6,6.7-20.7,15.5
		c-2.3,5-4.2,10.1-6.2,15.2c-6.9,17.3-13.9,34.6-21,52.3c4.2,0.9,7.4,3.6,9,8.2c1.9,5.5,2,11,0.2,16.5c-1.8,5.6-5.6,8.2-11.5,8.3
		c-4.2,0-8.5,0-13.2,0c-0.2,1.9-0.4,3.6-0.6,5.9c13.1,0,25.9,0,38.8,0c0,3.2,0,5.9,0,9.1c-7.8,0-15.7,0-23.5,0c-7.9,0-15.7,0-23.5,0
		c-2.7,8.8,1.6,15.1,10.3,15.2c10.7,0.1,21.5,0,32.2,0c0.9,0,1.7-0.1,2.5-0.2c5.1-19.5,17.2-30.2,33.5-30.2
		c16.2,0,28.2,10.8,33.3,30.2c37.2,0,74.4,0,111.8,0c0,3,0,5.7,0,8.9c-1.6,0-3.2,0-4.8,0c-34.7,0-69.4,0-104-0.1
		c-2.9,0-4,0.8-4.8,3.6c-2.6,8.8-8.4,15.1-17.1,20.4c45.2,0,89.4,0,133.8,0c0,3.1,0,5.8,0,8.8c-116.6,0-233.1,0-349.9,0
		c0-2.8,0-5.5,0-8.6c10.8,0,21.6,0,33.2,0c-8-8.3-11.9-17.3-10.3-28c1.2-8.1,5.3-14.7,11.6-19.9c12.8-10.4,30-9.6,41.7,2.1
		c12.8,12.6,12.8,28.6-0.3,45.4c36.8,0,73.3,0,110.5,0c-1.7-1.2-3.1-2.2-4.4-3.2c-5.8-4.4-10.1-10-12.2-17.1
		c-0.7-2.5-1.8-3.3-4.4-3.3c-9.1,0.2-18.2,0.1-27.3,0.1c-13.3,0-16.7-1.9-24.3-13.9c0,3.9,0,6.9,0,9.9c0,3.1,0,6.2,0,9.7
		c-4.2,0-8,0-11.8,0c-3.9,0-7.7,0-11.8,0c0-3,0-5.8,0-8.8c4.7,0,9.4,0,14.4,0c0.1-1.2,0.3-2.2,0.3-3.1c0-14.1,0.1-28.2-0.1-42.3
		c0-1.5-0.9-3.6-2-4.3c-7.8-5.1-12.6-12.6-17.3-20.3c-7.2-11.7-16.3-21.4-28.3-28.2c-11-6.2-22.8-9.4-35.3-9.7
		c-8.2-0.1-16.4,0-24.9,0c0-3.1,0-5.9,0-8.6c27.3-2.2,53.3,0,75.6,18c8.3,6.7,15.4,14.6,20.7,23.9c4.6,7.9,10.3,14.7,17.9,19.7
		c2.2,1.5,2.9,3.4,2.8,6c-0.2,7.7-0.1,15.4-0.1,22.9c2.7-1.7,5.3-3.3,8.4-5.3c-1.1-7,3.5-13.1,6.4-19.8c8.2-18.6,16.7-37,24.7-55.7
		c4.3-9.9,7.5-20.3,11.5-30.4c6.7-16.7,19.9-24,37.1-24.7c11.2-0.5,22.4-0.1,34.1-0.1c0-9,0-17.8,0-26.7c37.1,0,73.7,0,110.6,0
		c0,2.8,0,5.6,0,8.7c-33.7,0-67.3,0-101.2,0c0,50,0,99.7,0,149.7c32.7,0,65.4,0,98.3,0c0,3.1,0,5.9,0,8.9
		C311.1,203.2,275.5,203.2,239.3,203.2z M228.8,221.5c0.1-14-9.9-24.2-23.9-24.3c-14.2-0.2-24.4,9.9-24.5,24.1
		c-0.1,14,9.9,24.2,23.9,24.3C218.5,245.7,228.8,235.6,228.8,221.5z M57.4,250.6c13.1,0,22.6-9.4,22.8-22.5
		c0.1-13.1-9.7-23-22.8-22.9c-13.1,0.1-22.6,9.5-22.7,22.6C34.6,241.2,44,250.6,57.4,250.6z M139,179.4c3.6,0,6.7,0.2,9.7-0.1
		c1.1-0.1,2.7-1.6,2.8-2.6c0.3-3.2,0.3-6.4,0-9.6c-0.1-0.9-1.6-2.3-2.6-2.5c-1.2-0.2-3.2,0.3-3.7,1.2
		C142.9,170.1,141.1,174.5,139,179.4z"/>
	<path d="M3,323c0-3,0-5.7,0-8.6c116.6,0,233.1,0,349.8,0c0,2.8,0,5.6,0,8.6C236.3,323,119.8,323,3,323z"/>
	<path d="M155.3,52.9c-7.9,3.4-14.8,6.5-22.1,9.7c-5.8-13.3-11.5-26.5-17.5-40.3c-0.9,1.8-1.6,2.9-2.1,4.1
		c-5.4,11.8-10.8,23.5-16.1,35.4c-1,2.2-1.9,3.2-4.7,2.8c-6.9-1.1-13.8-1.7-21.3-2.5c3.7,12.5,7.4,24.7,11.1,37.1
		c-2.8,0.9-5.4,1.7-8.5,2.6C69,85,64,68.5,58.9,51.5c5.1,0.5,9.7,1,14.3,1.5c4.5,0.5,9,0.7,13.3,1.7c3.3,0.7,4.5-0.6,5.8-3.3
		c7.1-15.9,14.5-31.7,21.7-47.6c0.5-1.1,1.1-2.2,1.9-3.8c7.4,17.2,14.6,33.8,21.9,50.7c11.1-4.9,21.8-9.6,33.5-14.7
		c-13,34.4-25.7,68-38.5,101.9c-2.9-1.1-5.4-2-8.4-3.1C134.6,107.6,144.8,80.7,155.3,52.9z"/>
	<path d="M171.3,137.5c-0.7-9.1-0.9-17.2,3.5-25.2c4.6-8.4,8-17.4,12.1-26.1c0.5-1,1.8-2.4,2.7-2.4c13.4-0.2,26.9-0.1,40.8-0.1
		c0,2.1,0,4,0,5.8c0,9.4,0.1,18.7,0,28.1c-0.1,11.4-8.9,20-20.2,20c-11.7,0-23.5,0-35.2,0C173.8,137.5,172.7,137.5,171.3,137.5z
		 M179.3,128.5c11.7,0,22.3,0.1,32.9-0.1c4.9-0.1,8.7-3.3,8.9-7.9c0.3-9.2,0.1-18.4,0.1-27.9c-8.8,0-17.5-0.1-26.2,0.1
		c-0.8,0-1.8,1.4-2.3,2.4c-3.9,8.3-7.7,16.7-11.3,25.1C180.3,122.7,180.1,125.4,179.3,128.5z"/>
	<path d="M0,173.5c0-3.2,0-5.9,0-9c1.6,0,2.9,0,4.2,0c19.3,0,38.7,0.1,58-0.1c3,0,6-1.4,9.6-2.3c-18.9-24.2-43.5-30.4-71.7-26.9
		c0-3.6,0-6.4,0-9.1c32.8-3.5,62.8,4.8,84.2,38.7c-7.7,3.1-13.7,9.2-23.1,8.9c-18.9-0.6-37.9-0.2-56.9-0.2
		C3,173.5,1.7,173.5,0,173.5z"/>
	<path d="M263.7,98.7c2.7,0,5.3,0,8.5,0c0,1.5,0,2.9,0,4.4c0,17.6,0,35.1,0,52.7c0,10.9,3.7,14.7,14.5,14.7c6,0,11.9,0,18.2,0
		c0,3,0,5.8,0,8.7c-8.1,0-16.2,0.7-24.2-0.2c-9.4-1.1-17.2-10.2-17.3-19.8c-0.3-19.8-0.1-39.6,0-59.4
		C263.4,99.5,263.5,99.3,263.7,98.7z"/>
	<path d="M105,86.4c3.3,0.2,6,0.4,8.8,0.6c0,1.1,0,1.8,0,2.6c-0.6,8.6-1.3,17.3-2,26.2c-3-0.3-5.7-0.5-8.9-0.7
		C103.6,105.5,104.2,96.2,105,86.4z"/>
	<path d="M233.1,149.8c0,2.8,0,5.5,0,8.5c-6.8,0-13.6,0-20.6,0c0-2.8,0-5.5,0-8.5C219.4,149.8,226.2,149.8,233.1,149.8z"/>
	<path d="M20.6,233.2c-6,0-11.6,0-17.5,0c0-2.8,0-5.6,0-8.6c5.8,0,11.5,0,17.5,0C20.6,227.5,20.6,230.2,20.6,233.2z"/>
	<path d="M331.9,170.7c0,3,0,5.7,0,8.5c-3.9,0-7.6,0-11.5,0c0-2.9,0-5.7,0-8.5C324.4,170.7,328.2,170.7,331.9,170.7z"/>
	<path d="M14.7,281.4c0,3,0,5.6,0,8.5c-3.8,0-7.6,0-11.6,0c0-2.8,0-5.5,0-8.5C6.9,281.4,10.6,281.4,14.7,281.4z"/>
	<path d="M38.6,281.4c0,3,0,5.6,0,8.5c-3.8,0-7.6,0-11.6,0c0-2.8,0-5.5,0-8.5C30.9,281.4,34.5,281.4,38.6,281.4z"/>
	<path d="M62.3,290.1c-3.8,0-7.4,0-11.3,0c0-2.8,0-5.6,0-8.6c3.7,0,7.3,0,11.3,0C62.3,284.2,62.3,287,62.3,290.1z"/>
	<path d="M86.3,290.1c-3.8,0-7.4,0-11.3,0c0-2.8,0-5.6,0-8.6c3.7,0,7.3,0,11.3,0C86.3,284.2,86.3,287,86.3,290.1z"/>
	<path d="M110.4,290c-4,0-7.7,0-11.6,0c0-2.9,0-5.6,0-8.5c3.8,0,7.6,0,11.6,0C110.4,284.3,110.4,287,110.4,290z"/>
	<path d="M122.8,281.4c4,0,7.6,0,11.4,0c0,2.9,0,5.7,0,8.6c-3.8,0-7.5,0-11.4,0C122.8,287.2,122.8,284.4,122.8,281.4z"/>
	<path d="M158.4,281.5c0,2.9,0,5.5,0,8.4c-3.9,0-7.6,0-11.6,0c0-2.7,0-5.4,0-8.4C150.5,281.5,154.3,281.5,158.4,281.5z"/>
	<path d="M182.1,290c-3.8,0-7.5,0-11.4,0c0-2.8,0-5.6,0-8.6c3.8,0,7.5,0,11.4,0C182.1,284.3,182.1,287,182.1,290z"/>
	<path d="M206.3,281.4c0,3,0,5.6,0,8.5c-3.9,0-7.6,0-11.6,0c0-2.8,0-5.6,0-8.5C198.5,281.4,202.2,281.4,206.3,281.4z"/>
	<path d="M218.6,281.4c3.9,0,7.5,0,11.4,0c0,2.9,0,5.7,0,8.6c-3.7,0-7.4,0-11.4,0C218.6,287.2,218.6,284.5,218.6,281.4z"/>
	<path d="M242.6,281.4c4,0,7.6,0,11.4,0c0,2.9,0,5.7,0,8.6c-3.8,0-7.5,0-11.4,0C242.6,287.2,242.6,284.4,242.6,281.4z"/>
	<path d="M266.5,290c0-2.8,0-5.5,0-8.5c3.8,0,7.6,0,11.6,0c0,2.8,0,5.5,0,8.5C274.2,290,270.5,290,266.5,290z"/>
	<path d="M290.4,289.9c0-2.8,0-5.4,0-8.4c3.8,0,7.6,0,11.5,0c0,2.8,0,5.4,0,8.4C298.2,289.9,294.4,289.9,290.4,289.9z"/>
	<path d="M326,281.4c0,3,0,5.6,0,8.5c-3.8,0-7.6,0-11.6,0c0-2.8,0-5.5,0-8.5C318.3,281.4,322,281.4,326,281.4z"/>
	<path d="M338.4,289.9c0-2.7,0-5.4,0-8.4c3.8,0,7.5,0,11.5,0c0,2.7,0,5.4,0,8.4C346.1,289.9,342.4,289.9,338.4,289.9z"/>
	<path d="M110.5,125c-0.3,3.6-0.6,6.7-0.9,10.2c-3-0.3-5.8-0.5-8.8-0.8c0.2-3.3,0.5-6.3,0.8-9.9C104.5,124.6,107.2,124.8,110.5,125z
		"/>
	<path d="M204.6,236.3c-7.5,0-14.9-7.5-14.9-15c0-7.5,7.4-14.9,14.9-15c7.6-0.1,15.2,7.5,15.1,15.1C219.5,229,212,236.4,204.6,236.3
		z M210.6,221.3c0-3.8-2.2-6-6-6c-3.8,0-6,2.2-6,6c0,3.8,2.2,6,6,6C208.5,227.3,210.6,225.2,210.6,221.3z"/>
	<path d="M72.2,227.9c0,7.5-7.3,14.9-14.8,15c-7.5,0.1-15.3-7.7-15.1-15.2c0.1-7.5,7.5-14.8,15.1-14.8
		C65,213.1,72.2,220.3,72.2,227.9z M63.2,227.8c0-3.9-2-5.9-6-5.8c-3.8,0-6,2.2-5.9,6c0.1,3.7,2.3,6,6.1,5.9
		C61.2,233.9,63.3,231.7,63.2,227.8z"/>
</g>
</svg>
